<svg id="Layer_1" data-name="Layer 1" xmlns="http://www.w3.org/2000/svg" viewBox="0 0 672 272"><defs><style>.cls-1{fill:#fff;}</style></defs><title>logo_sans</title><path class="cls-1" d="M191,472V200H863V472H191Zm275.41-68.88H690.21c2.33,0,4.77.34,7-.21,5-1.23,9.79-4.09,14.67-4.09s9.75,3.88,14.66,4q37,0.61,74,0c11.57-.2,20.73-6,25.06-16.78a256.07,256.07,0,0,0,10.22-32.71c5.55-22.07,10.51-44.29,15.67-66.46,1.37-5.89,2.59-11.82,3.92-17.88a9,9,0,0,0-2.22-.17c-10.36,3-20.74,6-31,9.25-1,.32-1.84,2.69-1.92,4.16-0.24,4.12.59,8.39-.13,12.39-2,10.94-4.38,21.82-6.93,32.65-2.89,12.29-5.86,24.57-9.29,36.71-2.49,8.82-7.92,15-17.84,15.52-9.29.49-18.6,1.1-27.9,1.13a209.18,209.18,0,0,1-22.31-1.22c-4.24-.44-6.34-3.66-6-7.84a73.69,73.69,0,0,1,1.95-10.73q9.38-39.78,18.85-79.55c0.88-3.72,1.5-7.5,2.42-12.1-11.5,3.44-21.85,6.42-32.07,9.76-1.18.38-2.24,2.78-2.39,4.33-0.48,4.92.12,10-.83,14.82q-4,19.79-8.91,39.37c-2.52,10-5.46,19.82-8.73,29.56-2.09,6.23-6.1,11.19-13.24,12.11a143.46,143.46,0,0,1-16.89,1.5c-19,.19-38,0.09-57,0.06-1.72,0-3.44-.25-5.5-0.41,0.76-2.76,1.33-4.83,1.9-6.89,5.3-19.14,9.19-38.45,8.82-58.49-0.34-18.22-9.31-30.28-25.33-37.78-19.4-9.08-39.68-12-60.76-8.07-15.69,2.89-29.94,9.1-41.1,20.83-9.49,10-13.58,21.91-10.24,35.71,1.4,5.8,4.49,10.8,10.57,12.14,7.6,1.68,14.59-.95,21-4.67-2.33-3-5-5.46-6.37-8.47-3.16-6.82,0-14.9,8.66-19.47,20.88-11.07,42.62-10.95,64-1.78,11.06,4.75,14.75,14.4,12,26.16-3.39,14.56-7,29.07-10.67,43.57-1.94,7.68-2.06,7.65-9.66,7.65-28.16,0-56.32-.07-84.47.11-2.76,0-6.72.72-8,2.58C473.68,389.16,470.56,395.7,466.41,403.12ZM203.49,341.54c-11.61,12.54-12.69,28.62-2.77,41.59,8.19,10.71,19.55,16.69,32.6,18.36,11.34,1.45,22.9,1.45,34.37,1.56,18.49,0.17,37,.19,55.47-0.28,11.71-.3,21.32-5.7,25.47-16.85,4.89-13.16,8.59-26.82,12.07-40.45,4.93-19.32,9.23-38.79,13.73-58.22,1.51-6.53,2.81-13.11,4.44-20.77L344,277c-0.56,8.08-.66,15.22-1.66,22.24-0.93,6.56-2.73,13-4.3,19.46-3.61,14.84-7.09,29.73-11.08,44.47-2.08,7.7-6.45,14-15,15.77a67.18,67.18,0,0,1-12.86,1.54c-16.82.19-33.65,0.32-50.48,0.08s-30-7-38-22.21C207.89,353.13,206,347.44,203.49,341.54Zm264.68-74.33c-11.84,3.57-22.77,6.77-33.6,10.31-1,.33-1.67,2.78-1.84,4.32-0.87,8-.81,16.27-2.41,24.16-3.66,18.07-8,36-12.25,54-3.63,15.53-7.09,31.11-11.24,46.5-3.22,12-10.69,20.18-23.63,22-3.82.54-7.72,0.57-11.91,0.86,10.36,15.35,30.77,18.42,45.79,11,10.17-5,14-14.94,16.65-24.94,5.38-20.57,10.1-41.31,14.94-62,5.33-22.81,10.5-45.67,15.7-68.51C465.64,279.24,466.79,273.62,468.17,267.21Zm254.07-41.94c7.08,6.58,13.31,12.52,19.77,18.19a4.39,4.39,0,0,0,4.27-.05q8.91-8.3,17.28-17.15c0.77-.81.79-3.58,0-4.39-5.22-5.54-10.64-10.92-16.27-16-0.94-.86-3.91-1-4.8-0.16C736,211.58,729.85,217.82,722.23,225.27Zm-48.4.46c6.33,6,12.54,11.94,18.91,17.72,0.82,0.74,3.11,1.23,3.63.72,6.7-6.54,13.2-13.29,19.57-19.8l-20.6-20.95ZM278.53,466c7.29-7.06,13.76-13.21,20-19.58,0.74-.76,1-3.27.33-4-5.93-6.44-12.1-12.66-19.38-20.16-6.83,7.35-13.08,13.95-19.12,20.73a3.88,3.88,0,0,0,0,3.77C266.37,453.42,272.59,459.81,278.53,466ZM838.8,246c6.22-6.71,12.34-13.21,18.27-19.88,0.72-.81,1-3.18.4-3.8-6.15-6.4-12.52-12.59-19.4-19.41-6.64,6.85-12.82,13.08-18.74,19.55-0.74.81-.7,3.55,0.07,4.35C825.24,232.92,831.35,238.74,838.8,246Z" transform="translate(-191 -200)"/><path d="M466.41,403.12c4.16-7.42,7.27-14,11.39-19.79,1.31-1.86,5.28-2.56,8-2.58,28.16-.18,56.32-0.11,84.47-0.11,7.6,0,7.72,0,9.66-7.65,3.65-14.5,7.29-29,10.67-43.57,2.74-11.77-.95-21.41-12-26.16-21.34-9.17-43.08-9.29-64,1.78-8.62,4.57-11.82,12.65-8.66,19.47,1.39,3,4,5.45,6.37,8.47-6.44,3.73-13.43,6.35-21,4.67-6.08-1.34-9.16-6.34-10.57-12.14-3.34-13.8.75-25.73,10.24-35.71,11.15-11.73,25.4-17.93,41.1-20.83,21.09-3.89,41.37-1,60.76,8.07,16,7.5,25,19.56,25.33,37.78,0.37,20-3.52,39.35-8.82,58.49-0.57,2.06-1.14,4.13-1.9,6.89,2.06,0.16,3.78.41,5.5,0.41,19,0,38,.13,57-0.06a143.46,143.46,0,0,0,16.89-1.5c7.14-.92,11.15-5.88,13.24-12.11,3.27-9.73,6.21-19.6,8.73-29.56q4.95-19.56,8.91-39.37c1-4.8.35-9.89,0.83-14.82,0.15-1.56,1.21-3.95,2.39-4.33,10.23-3.35,20.58-6.32,32.07-9.76-0.91,4.6-1.54,8.38-2.42,12.1Q741.2,321,731.74,360.76a73.69,73.69,0,0,0-1.95,10.73c-0.35,4.18,1.75,7.4,6,7.84a209.18,209.18,0,0,0,22.31,1.22c9.3,0,18.6-.64,27.9-1.13,9.92-.53,15.36-6.7,17.84-15.52,3.42-12.15,6.4-24.42,9.29-36.71,2.55-10.83,4.94-21.71,6.93-32.65,0.73-4-.1-8.27.13-12.39,0.08-1.47.91-3.84,1.92-4.16,10.28-3.28,20.66-6.24,31-9.25a9,9,0,0,1,2.22.17c-1.32,6.07-2.54,12-3.92,17.88-5.16,22.17-10.13,44.39-15.67,66.46A256.07,256.07,0,0,1,825.54,386c-4.33,10.82-13.49,16.58-25.06,16.78q-37,.65-74,0c-4.91-.08-9.77-4-14.66-4s-9.72,2.86-14.67,4.09c-2.21.55-4.64,0.21-7,.21H466.41Z" transform="translate(-191 -200)"/><path d="M203.49,341.54c2.48,5.9,4.4,11.58,7.16,16.83,8,15.18,21.27,22,38,22.21s33.65,0.11,50.48-.08A67.18,67.18,0,0,0,312,379c8.51-1.78,12.88-8.07,15-15.77,4-14.74,7.47-29.63,11.08-44.47,1.57-6.46,3.36-12.9,4.3-19.46,1-7,1.1-14.16,1.66-22.24l34.88-10.53c-1.63,7.66-2.93,14.24-4.44,20.77-4.5,19.43-8.8,38.9-13.73,58.22-3.48,13.63-7.18,27.28-12.07,40.45-4.15,11.15-13.76,16.56-25.47,16.85-18.48.47-37,.45-55.47,0.28-11.47-.11-23-0.1-34.37-1.56-13-1.67-24.41-7.65-32.6-18.36C190.79,370.16,191.87,354.09,203.49,341.54Z" transform="translate(-191 -200)"/><path d="M468.17,267.21c-1.38,6.42-2.52,12-3.79,17.62-5.21,22.84-10.37,45.7-15.7,68.51-4.84,20.71-9.56,41.44-14.94,62-2.62,10-6.48,19.89-16.65,24.94-15,7.45-35.42,4.38-45.79-11,4.19-.29,8.09-0.32,11.91-0.86,12.94-1.82,20.41-10,23.63-22,4.15-15.39,7.61-31,11.24-46.5,4.2-18,8.58-35.88,12.25-54,1.6-7.89,1.54-16.11,2.41-24.16,0.17-1.54.84-4,1.84-4.32C445.4,274,456.33,270.78,468.17,267.21Z" transform="translate(-191 -200)"/><path d="M722.23,225.27c7.61-7.44,13.8-13.68,20.27-19.6,0.88-.81,3.86-0.69,4.8.16,5.63,5.12,11.05,10.5,16.27,16,0.76,0.81.74,3.58,0,4.39q-8.35,8.85-17.28,17.15a4.39,4.39,0,0,1-4.27.05C735.54,237.79,729.32,231.85,722.23,225.27Z" transform="translate(-191 -200)"/><path d="M673.83,225.73l21.51-22.31,20.6,20.95c-6.37,6.51-12.87,13.26-19.57,19.8-0.52.51-2.81,0-3.63-.72C686.37,237.66,680.16,231.7,673.83,225.73Z" transform="translate(-191 -200)"/><path d="M278.53,466c-5.94-6.22-12.16-12.61-18.16-19.19a3.88,3.88,0,0,1,0-3.77c6-6.79,12.29-13.39,19.12-20.73,7.28,7.5,13.45,13.72,19.38,20.16,0.63,0.69.42,3.2-.33,4C292.29,452.82,285.81,459,278.53,466Z" transform="translate(-191 -200)"/><path d="M838.8,246c-7.45-7.3-13.56-13.11-19.4-19.19-0.77-.8-0.81-3.54-0.07-4.35,5.92-6.47,12.1-12.7,18.74-19.55,6.88,6.82,13.25,13,19.4,19.41,0.59,0.62.32,3-.4,3.8C851.14,232.83,845,239.32,838.8,246Z" transform="translate(-191 -200)"/></svg>